<svg width="1280" height="720" xmlns="http://www.w3.org/2000/svg" xmlns:xlink="http://www.w3.org/1999/xlink" overflow="hidden"><defs><clipPath id="clip0"><rect x="0" y="0" width="1280" height="720"/></clipPath></defs><g clip-path="url(#clip0)"><rect x="0" y="0" width="1280" height="720" fill="#FF0000" fill-opacity="0"/><path d="M851.28 364.497C841.041 526.341 689.63 646.332 513.094 632.506 336.558 618.679 201.748 476.27 211.987 314.426 222.226 152.582 373.637 32.5902 550.172 46.4167 554.989 46.7939 559.798 47.2709 564.596 47.8473L557.707 108.799C415.474 91.4916 288.498 180.732 274.098 308.124 259.698 435.516 363.327 552.817 505.56 570.124 647.793 587.432 774.769 498.191 789.169 370.799 789.586 367.112 789.904 363.414 790.123 359.707Z" fill="#00B0F0" fill-rule="evenodd"/><path d="M478.656 83.0222 563.731 64C553.179 165.439 508.993 304.92 508.333 389.24 555.158 401.286 590.111 388.607 631 387.339L611.215 452.008C557.136 451.374 501.079 458.345 447 442.495 449.638 329.645 462.168 203.48 478.656 83.0222Z" fill="#00B0F0" fill-rule="evenodd"/><path d="M573.464 262.562 850 259 842.082 316 559 316 573.464 262.562Z" fill="#7F7F7F" fill-rule="evenodd"/><path d="M625.234 489.619 664.036 312.281 729.119 304.594 664.865 537.432C651.655 521.494 617.308 517.365 625.234 489.619Z" fill="#7F7F7F" fill-rule="evenodd"/><path d="M605.876 47.544C760.802 61.0012 853.043 158.205 849.477 276.84 823.223 276.951 804.379 277.012 778.125 277.123 781.379 195.494 710.176 106.249 588.748 112.071L605.876 47.544Z" fill="#7F7F7F" fill-rule="evenodd"/></g></svg>