<svg width="1280" height="720" xmlns="http://www.w3.org/2000/svg" xmlns:xlink="http://www.w3.org/1999/xlink" overflow="hidden"><defs><clipPath id="clip0"><rect x="0" y="0" width="1280" height="720"/></clipPath></defs><g clip-path="url(#clip0)"><rect x="0" y="0" width="1280" height="720" fill="#FF0000" fill-opacity="0"/><path d="M463.697 281.196C458.917 349.241 397.139 399.866 325.712 394.272 254.285 388.678 200.257 328.982 205.036 260.937 209.816 192.893 271.594 142.267 343.022 147.861 344.763 147.998 346.501 148.167 348.236 148.371L345.337 174.017C288.325 167.283 237.196 205.274 231.137 258.873 225.078 312.472 266.384 361.382 323.397 368.116 380.409 374.85 431.538 336.859 437.597 283.26 437.75 281.903 437.873 280.543 437.966 279.181Z" fill="#00B0F0" fill-rule="evenodd"/><path d="M312.903 163.02 347.581 155C343.28 197.766 325.269 256.57 325 292.119 344.086 297.198 358.333 291.852 375 291.318L366.935 318.582C344.892 318.315 322.043 321.254 300 314.571 301.075 266.994 306.183 213.804 312.903 163.02Z" fill="#00B0F0" fill-rule="evenodd"/><path d="M350.865 238.5 463 237 459.789 261 345 261 350.865 238.5Z" fill="#7F7F7F" fill-rule="evenodd"/><path d="M372.455 333.929 387.447 259.683 413.818 256.732 388.734 354.159C383.308 347.416 369.357 345.538 372.455 333.929Z" fill="#7F7F7F" fill-rule="evenodd"/><path d="M364.136 148.042C426.869 154.012 464.399 195.074 463.194 244.956 452.568 244.95 444.941 244.937 434.315 244.931 435.468 210.611 406.47 172.938 357.333 175.142L364.136 148.042Z" fill="#7F7F7F" fill-rule="evenodd"/></g></svg>